<?xml version="1.0" encoding="UTF-8"?><svg id="Layer_1" xmlns="http://www.w3.org/2000/svg" xmlns:xlink="http://www.w3.org/1999/xlink" viewBox="0 0 69.19 69.19"><defs><style>.cls-1{stroke:#000;stroke-linecap:round;stroke-linejoin:round;}.cls-1,.cls-2{fill:none;}.cls-3{fill:#545554;}.cls-4{fill:#bfa280;}.cls-5{clip-path:url(#clippath);}</style><clipPath id="clippath"><rect class="cls-2" width="69.19" height="69.19"/></clipPath></defs><g class="cls-5"><g><path class="cls-3" d="M50.79,65.27c-.7,0-1.28,.53-1.34,1.22h-10.17l-1.6-9.66,1.78-1.78c.25-.25,.4-.6,.4-.96s-.14-.7-.4-.96l-1.58-1.58h2.7c2.96,0,5.71,1.47,7.36,3.93,.42,.62,1.26,.78,1.88,.37,.62-.42,.78-1.26,.37-1.88-2.14-3.18-5.69-5.09-9.52-5.12,1.31-1.45,2.11-3.37,2.11-5.47v-1.98c0-4.51-3.67-8.17-8.17-8.17s-8.17,3.67-8.17,8.17v1.98c0,2.1,.8,4.02,2.11,5.47-6.34,.05-11.48,5.22-11.48,11.57v7.42c0,.75,.6,1.35,1.35,1.35H50.78c.75,0,1.35-.61,1.35-1.35v-1.22c0-.75-.6-1.35-1.35-1.35Zm-16.18-9.21l-1.97-1.97,1.97-1.97,1.97,1.97-1.97,1.97Zm-.7,3.07c.21,.13,.46,.2,.7,.2s.48-.07,.7-.2l1.22,7.36h-3.84l1.22-7.36Zm-4.79-17.73c0-3.02,2.45-5.47,5.47-5.47s5.47,2.45,5.47,5.47v1.98c0,3.02-2.45,5.47-5.47,5.47s-5.47-2.45-5.47-5.47v-1.98Zm-9.37,19.02c0-4.89,3.98-8.87,8.87-8.87h2.73l-1.58,1.58c-.25,.25-.4,.6-.4,.96s.14,.7,.4,.96l1.78,1.78-1.6,9.66h-10.19v-6.07h0Z"/><path class="cls-4" d="M27.43,1.5c.4,0,9.5,.33,14,.5v14.5l-14-.5V1.5Z"/><path class="cls-4" d="M59.43,2l-7,13h15l-7-12.5-1-.5Z"/><path class="cls-1" d="M27.43,1.5c.4,0,9.5,.33,14,.5v14.5l-14-.5V1.5Z"/><path class="cls-1" d="M59.43,2l-7,13h15l-7-12.5-1-.5Z"/><path class="cls-3" d="M17.28,8.64C17.28,3.88,13.41,0,8.64,0S0,3.88,0,8.64s3.88,8.64,8.64,8.64,8.64-3.88,8.64-8.64Zm-14.58,0c0-3.27,2.66-5.94,5.94-5.94s5.94,2.66,5.94,5.94-2.66,5.94-5.94,5.94-5.94-2.66-5.94-5.94Z"/><path class="cls-3" d="M27.31,17.28h14.58c.75,0,1.35-.61,1.35-1.35V1.35C43.24,.61,42.63,0,41.88,0h-14.58C26.56,0,25.95,.61,25.95,1.35V15.93c0,.75,.6,1.35,1.35,1.35Zm1.35-14.58h11.88V14.58h-11.88V2.7Z"/><path class="cls-3" d="M69.01,14.72L61.21,1.21c-.24-.42-.69-.68-1.17-.68s-.93,.26-1.17,.68l-7.8,13.51c-.24,.42-.24,.93,0,1.35,.24,.42,.69,.68,1.17,.68h15.59c.48,0,.93-.26,1.17-.68,.24-.42,.24-.93,0-1.35Zm-14.42-.68l5.46-9.45,5.46,9.45h-10.91Z"/><path class="cls-3" d="M34.59,30.57c.75,0,1.35-.61,1.35-1.35v-3.86l.05,.08c.26,.37,.68,.57,1.1,.57,.27,0,.55-.08,.79-.25,.61-.43,.75-1.28,.31-1.89l-2.51-3.5c-.25-.35-.66-.57-1.1-.57s-.85,.21-1.1,.57l-2.51,3.5c-.43,.61-.29,1.45,.31,1.89s1.45,.29,1.89-.31l.05-.08v3.86c0,.75,.6,1.35,1.35,1.35Z"/><path class="cls-3" d="M23.47,41.52c0-.75-.6-1.35-1.35-1.35H10v-14.8l.05,.08c.26,.37,.68,.57,1.1,.57,.27,0,.55-.08,.79-.25,.61-.43,.75-1.28,.31-1.89l-2.51-3.5c-.25-.35-.66-.57-1.1-.57s-.85,.21-1.1,.57l-2.5,3.5c-.43,.61-.29,1.45,.31,1.89,.61,.43,1.45,.29,1.89-.31l.05-.08v16.15c0,.75,.61,1.35,1.35,1.35h13.47c.75,0,1.35-.6,1.35-1.35Z"/><path class="cls-3" d="M61.64,20.37c-.25-.35-.66-.57-1.1-.57s-.85,.21-1.1,.57l-2.51,3.5c-.43,.61-.29,1.45,.31,1.89,.61,.43,1.45,.29,1.89-.31l.05-.08v14.8h-12.12c-.75,0-1.35,.61-1.35,1.35s.6,1.35,1.35,1.35h13.47c.75,0,1.35-.61,1.35-1.35V25.37l.05,.08c.26,.37,.68,.57,1.1,.57,.27,0,.55-.08,.79-.25,.61-.43,.75-1.28,.31-1.89l-2.51-3.5Z"/><path class="cls-3" d="M50.78,61.89c.75,0,1.35-.6,1.35-1.35s-.6-1.35-1.35-1.35-1.35,.61-1.35,1.35,.6,1.35,1.35,1.35Z"/></g></g></svg>