<?xml version="1.0" encoding="UTF-8"?><svg id="Layer_1" xmlns="http://www.w3.org/2000/svg" xmlns:xlink="http://www.w3.org/1999/xlink" viewBox="0 0 69.19 69.19"><defs><style>.cls-1{fill:#545554;}.cls-2{fill:#bfa280;}.cls-3{clip-path:url(#clippath);}.cls-4{fill:none;}</style><clipPath id="clippath"><rect class="cls-4" width="69.19" height="69.19"/></clipPath></defs><g class="cls-3"><g><path class="cls-2" d="M44.41,5h-10l-12,12,6,3.5,6-6,12.5,12.5,4.5,5.5,6.5,1,3-5.5V9l-5-4h-11.5Z"/><path class="cls-1" d="M64.59,14.39h-2.71v-4.84c0-3.25-2.64-5.89-5.88-5.89h-20.53c-1.17-.01-2.27,.44-3.09,1.27L1.72,35.58c-1.11,1.11-1.72,2.59-1.72,4.16s.61,3.05,1.72,4.16l19.89,19.89c1.15,1.15,2.66,1.72,4.16,1.72s3.02-.57,4.16-1.72l19.3-19.3c.53-.53,.53-1.38,0-1.91-.53-.53-1.38-.53-1.91,0l-19.3,19.3c-1.24,1.24-3.26,1.24-4.51,0L3.64,42c-.6-.6-.93-1.4-.93-2.25s.33-1.65,.93-2.25L34.29,6.84c.32-.32,.74-.49,1.18-.49h20.53c1.76,.01,3.19,1.44,3.18,3.2v11.32h-6.09c-.52,0-1-.21-1.34-.56,.57-.24,1.1-.59,1.56-1.05,1.94-1.94,1.94-5.1,0-7.04-1.94-1.94-5.1-1.94-7.04,0-1.94,1.94-1.94,5.1,0,7.04,.72,.72,1.61,1.17,2.54,1.36,.66,1.73,2.34,2.96,4.29,2.96h6.09v6.48c0,.45-.18,.87-.49,1.18l-3.71,3.71c-.53,.53-.53,1.38,0,1.91,.53,.53,1.38,.53,1.91,0l3.71-3.71c.83-.83,1.28-1.92,1.28-3.09v-6.48h2.71c2.53,0,4.59-2.06,4.59-4.59s-2.06-4.59-4.59-4.59Zm-16.42-.26c.44-.44,1.03-.67,1.61-.67s1.17,.22,1.61,.67c.14,.14,.26,.3,.35,.46-1.48,.45-2.65,1.64-3.07,3.14-.18-.1-.35-.22-.5-.38-.89-.89-.89-2.33,0-3.22Zm16.42,6.75h-2.71v-3.78h2.71c1.04,0,1.89,.85,1.89,1.89s-.85,1.89-1.89,1.89Z"/><path class="cls-1" d="M21.81,37.74c.17,.6,.71,.99,1.3,.99,.12,0,.24-.02,.36-.05l13.87-3.86c.72-.2,1.14-.95,.94-1.66-.2-.72-.94-1.14-1.66-.94l-13.87,3.86c-.72,.2-1.14,.95-.94,1.66Z"/><path class="cls-1" d="M27.92,39.53c-.75,.75-1.17,1.75-1.17,2.82s.41,2.06,1.17,2.82c.78,.78,1.8,1.16,2.82,1.16s2.04-.39,2.82-1.16c1.55-1.55,1.55-4.08,0-5.64s-4.08-1.55-5.64,0Zm3.72,3.72c-.5,.5-1.31,.5-1.81,0-.24-.24-.38-.56-.38-.91s.13-.66,.38-.91c.25-.25,.58-.37,.91-.37s.66,.13,.91,.37c.5,.5,.5,1.31,0,1.81Z"/><path class="cls-1" d="M34.22,31.48c1.55-1.55,1.55-4.08,0-5.63-.75-.75-1.75-1.17-2.82-1.17s-2.07,.41-2.82,1.17c-1.55,1.55-1.55,4.08,0,5.63,.78,.78,1.8,1.16,2.82,1.16s2.04-.39,2.82-1.16Zm-3.72-3.72c.24-.24,.56-.38,.91-.38s.66,.13,.91,.38c.5,.5,.5,1.31,0,1.81-.5,.5-1.31,.5-1.81,0-.5-.5-.5-1.31,0-1.81Z"/><path class="cls-1" d="M13.44,34.95c-.53-.53-1.38-.53-1.91,0l-3.84,3.84c-.25,.25-.4,.6-.4,.96s.14,.7,.4,.96l17.14,17.14c.26,.26,.61,.4,.96,.4s.69-.13,.96-.4l25.62-25.62c.53-.53,.53-1.38,0-1.91L35.22,13.17c-.25-.25-.6-.4-.96-.4s-.7,.14-.96,.4l-14.14,14.14c-.53,.53-.53,1.38,0,1.91,.53,.53,1.38,.53,1.91,0l13.18-13.18,15.22,15.22-23.71,23.71-15.22-15.22,2.88-2.88c.53-.53,.53-1.38,0-1.91Z"/><path class="cls-1" d="M52.11,38.37c-.36,0-.7,.14-.96,.4-.25,.25-.4,.6-.4,.96s.14,.7,.4,.96c.25,.25,.6,.4,.96,.4s.7-.14,.96-.4c.25-.25,.4-.6,.4-.96s-.14-.7-.4-.96c-.25-.25-.6-.4-.96-.4Z"/><path class="cls-1" d="M17.26,33.04c.25-.25,.4-.6,.4-.96s-.14-.7-.4-.96c-.25-.25-.6-.4-.95-.4s-.7,.14-.96,.4c-.25,.25-.4,.6-.4,.96s.14,.7,.4,.96c.25,.25,.6,.4,.96,.4s.7-.14,.95-.4Z"/></g></g></svg>