<?xml version="1.0" encoding="UTF-8"?><svg id="Layer_1" xmlns="http://www.w3.org/2000/svg" xmlns:xlink="http://www.w3.org/1999/xlink" viewBox="0 0 69.19 69.19"><defs><style>.cls-1{fill:#545554;}.cls-2{fill:#bfa280;}.cls-3{clip-path:url(#clippath);}.cls-4{fill:none;}</style><clipPath id="clippath"><rect class="cls-4" width="69.19" height="69.19"/></clipPath></defs><g class="cls-3"><g><circle class="cls-2" cx="46.62" cy="49" r="18"/><path class="cls-1" d="M50.26,29.95v-13.09c0-.37-.17-.72-.42-1L35.16,.45c-.27-.29-.66-.45-1.05-.45H10.84C6.54,0,3.11,3.5,3.11,7.8V51.81c0,4.3,3.43,7.74,7.73,7.74H29.21c3.47,5.77,9.79,9.63,16.99,9.63,10.93,0,19.86-8.88,19.86-19.83,.01-9.56-6.85-17.55-15.79-19.41ZM35.55,5.06l9.85,10.37h-6.39c-1.9,0-3.46-1.57-3.46-3.47V5.06ZM10.84,56.67c-2.7,0-4.84-2.16-4.84-4.86V7.8c0-2.71,2.15-4.92,4.84-4.92h21.83V11.95c0,3.5,2.84,6.36,6.35,6.36h8.36v11.26c-.43-.01-.78-.06-1.15-.06-5.03,0-9.66,1.93-13.15,4.96H14.76c-.79,0-1.44,.65-1.44,1.44s.65,1.44,1.44,1.44h15.63c-1.02,1.44-1.88,2.88-2.54,4.47H14.76c-.79,0-1.44,.65-1.44,1.44s.65,1.44,1.44,1.44h12.16c-.36,1.44-.55,3.04-.55,4.64,0,2.6,.5,5.16,1.41,7.33H10.84Zm35.37,9.63c-9.34,0-16.94-7.6-16.94-16.94s7.58-16.94,16.94-16.94,16.94,7.6,16.94,16.94-7.6,16.94-16.94,16.94Z"/><path class="cls-1" d="M14.76,30.14h14.61c.79,0,1.44-.65,1.44-1.44s-.65-1.44-1.44-1.44H14.76c-.79,0-1.44,.65-1.44,1.44s.65,1.44,1.44,1.44Z"/><path class="cls-1" d="M45.73,40.48c.12,.03,.23,.04,.35,.04,.14,0,.27-.01,.4-.06,1.9,.16,3.39,1.75,3.39,3.68,0,.79,.65,1.44,1.44,1.44s1.44-.65,1.44-1.44c0-3.17-2.25-5.83-5.23-6.45v-.92c0-.79-.65-1.44-1.44-1.44s-1.44,.65-1.44,1.44v.98c-2.88,.69-5.03,3.3-5.03,6.39,0,3.63,2.96,6.58,6.58,6.58,2.03,0,3.69,1.66,3.69,3.69s-1.64,3.71-3.69,3.71-3.69-1.66-3.69-3.69c0-.79-.65-1.44-1.44-1.44s-1.44,.65-1.44,1.44c0,3.1,2.15,5.7,5.03,6.39v1.49c0,.79,.65,1.44,1.44,1.44s1.44-.65,1.44-1.44v-1.44c2.99-.62,5.23-3.27,5.23-6.45,0-3.63-2.96-6.58-6.58-6.58-2.03,0-3.69-1.66-3.69-3.69,0-1.88,1.41-3.45,3.24-3.66Z"/></g></g></svg>