<?xml version="1.0" encoding="UTF-8"?><svg id="Layer_1" xmlns="http://www.w3.org/2000/svg" xmlns:xlink="http://www.w3.org/1999/xlink" viewBox="0 0 69.19 69.19"><defs><style>.cls-1{stroke:#000;stroke-linecap:round;stroke-linejoin:round;}.cls-1,.cls-2{fill:#545554;}.cls-3{fill:#bfa280;}.cls-4{clip-path:url(#clippath);}.cls-5{fill:none;}</style><clipPath id="clippath"><rect class="cls-5" width="69.19" height="69.19"/></clipPath></defs><g class="cls-4"><g><path class="cls-2" d="M15.1,48.42c-.57-.48-1.42-.4-1.9,.17l-3.38,4.03-1.22-1.03c-.57-.48-1.42-.41-1.9,.16-.48,.57-.41,1.42,.16,1.9l2.26,1.91c.24,.21,.55,.32,.87,.32,.04,0,.08,0,.12,0,.36-.03,.69-.2,.92-.48l4.25-5.08c.48-.57,.4-1.42-.17-1.9Z"/><path class="cls-3" d="M43.19,22v4c0,.5-2,2-2.5,2h-9c-.83-.17-2.5-.2-2.5,1v3.5l-2,.5c-.5,.33-1.5,1.1-1.5,1.5,0,.5-.5,1.5,0,2s1.5,1,2,1.5,1.5,0,1.5,.5v2c0,.4,.33,1.5,.5,2,.33,.33,1.1,1,1.5,1s1.17,.33,1.5,.5v1.5c0,.4,.67,1.5,1,2,.5,.33,1.7,1,2.5,1,1,0,9.5,1,11,1,1.2,0,5.17-.67,7-1l3.5-2.5,5-1h3l2-1v-2.5l.5-10.5-1-2h-3.5c-.4,0-2.17-1.33-3-2-.67-.5-2-1.6-2-2s-3-1.83-4.5-2.5l-2-.5h-9Z"/><path class="cls-3" d="M25.19,8v12l4-1.5,1.5-1,5,2.5,1.5-1.5-.5-9.5-1.5-1h-10Z"/><path class="cls-1" d="M43.19,22v4m0-4v4m0-4h1.5m-1.5,4c0,.5-2,2-2.5,2m0,0h-9m9,0h-9m0,0c-.83-.17-2.5-.2-2.5,1m0,0v3.5m0-3.5v3.5m0,0l-2,.5c-.5,.33-1.5,1.1-1.5,1.5,0,.5-.5,1.5,0,2s1.5,1,2,1.5,1.5,0,1.5,.5m0,0v2m0-2v2m0,0c0,.4,.33,1.5,.5,2,.33,.33,1.1,1,1.5,1s1.17,.33,1.5,.5m0,0v1.5m0-1.5v1.5m0,0c0,.4,.67,1.5,1,2,.5,.33,1.7,1,2.5,1,1,0,9.5,1,11,1,1.2,0,5.17-.67,7-1l3.5-2.5,5-1h3l2-1v-2.5l.5-10.5-1-2m0,0h-3.5m3.5,0h-3.5m0,0c-.4,0-2.17-1.33-3-2-.67-.5-2-1.6-2-2s-3-1.83-4.5-2.5l-2-.5h-7.5m0,0h-2M25.19,8v12m0-12h10l1.5,1,.5,9.5-1.5,1.5-5-2.5-1.5,1-4,1.5m0-12v12"/><path class="cls-2" d="M66.33,27.58h-1.94c-1.63-.08-2.94-1.46-4.45-3.06-1.01-1.07-2.09-2.22-3.4-3.07V9.9c0-2.03-1.66-3.69-3.69-3.69H8.77c-2.03,0-3.69,1.66-3.69,3.69v9.37c0,.75,.61,1.35,1.35,1.35s1.35-.6,1.35-1.35V9.9c0-.54,.45-.99,.99-.99h14.95v11.96c0,.49,.27,.94,.7,1.18,.2,.11,.43,.17,.65,.17,.25,0,.5-.07,.72-.21l5.02-3.14,5.02,3.14c.42,.26,.94,.27,1.37,.04,.43-.24,.7-.69,.7-1.18V8.91h14.95c.54,0,.99,.45,.99,.99v10.41c-.44-.09-.9-.15-1.39-.16h-7.66c-1.63,.03-2.47,.76-2.88,1.38-.64,.95-.7,2.25-.17,3.64,.12,.32,.28,.63,.45,.92h-10.25c-2.2,0-3.99,1.79-3.99,3.99,0,.45,.08,.89,.21,1.29h-.36c-2.2,0-3.99,1.79-3.99,3.99s1.79,3.99,3.99,3.99h.36c-.14,.4-.21,.84-.21,1.29,0,2.13,1.68,3.88,3.78,3.99-.14,.41-.22,.84-.22,1.3,0,2.2,1.79,3.99,3.99,3.99h16.74c.58,0,1.1-.07,1.59-.19v4.23c0,.54-.45,.99-.99,.99H21.55c.27-.94,.41-1.94,.41-2.97,0-6.05-4.92-10.98-10.98-10.98-1.11,0-2.18,.17-3.2,.48v-10.07c0-.75-.61-1.35-1.35-1.35s-1.35,.6-1.35,1.35v11.32c-3.05,1.95-5.08,5.37-5.08,9.25,0,6.06,4.92,10.98,10.98,10.98,3.98,0,7.47-2.13,9.4-5.31H52.85c2.03,0,3.69-1.66,3.69-3.69v-5.56c.3-.21,.58-.43,.86-.65,1.19-.92,2.22-1.71,3.87-1.71h5.06c1.58,0,2.86-1.28,2.86-2.86v-12.75c0-1.58-1.28-2.86-2.86-2.86Zm-31.14-9.15l-3.66-2.29c-.44-.27-.99-.27-1.43,0l-3.67,2.29V8.91h8.76v9.52ZM10.98,60.28c-4.56,0-8.28-3.71-8.28-8.28s3.71-8.28,8.28-8.28,8.28,3.71,8.28,8.28-3.71,8.28-8.28,8.28Zm55.51-17.09c0,.08-.07,.16-.16,.16h-5.06c-2.56,0-4.13,1.21-5.51,2.28-1.16,.9-2.08,1.6-3.5,1.6h-16.74c-.71,0-1.29-.58-1.29-1.29s.58-1.29,1.29-1.29h4.49c.75,0,1.35-.61,1.35-1.35s-.6-1.35-1.35-1.35h-8.05c-.71,0-1.29-.58-1.29-1.29s.58-1.29,1.29-1.29h8.05c.75,0,1.35-.6,1.35-1.35s-.6-1.35-1.35-1.35h-12.19c-.71,0-1.29-.58-1.29-1.29s.58-1.29,1.29-1.29h12.19c.75,0,1.35-.6,1.35-1.35s-.6-1.35-1.35-1.35h-8.05c-.71,0-1.29-.58-1.29-1.29s.58-1.29,1.29-1.29h19.97c.75,0,1.35-.61,1.35-1.35s-.6-1.35-1.35-1.35h-4.89c-1.24,0-2.32-.74-2.76-1.89-.26-.67-.19-1.05-.11-1.16,.07-.11,.34-.18,.67-.19h7.59c2.28,.05,3.87,1.73,5.56,3.52,1.77,1.87,3.59,3.81,6.33,3.91h2.02c.09,0,.16,.07,.16,.16v12.75h0Z"/><path class="cls-2" d="M6.43,26.7c.75,0,1.35-.61,1.35-1.36s-.61-1.35-1.35-1.35-1.35,.6-1.35,1.35h0c0,.75,.61,1.36,1.35,1.36Z"/></g></g></svg>