<?xml version="1.0" encoding="UTF-8"?><svg id="Layer_1" xmlns="http://www.w3.org/2000/svg" xmlns:xlink="http://www.w3.org/1999/xlink" viewBox="0 0 69.05 69.05"><defs><style>.cls-1{fill:#545554;}.cls-2{fill:#bfa280;}.cls-3{clip-path:url(#clippath);}.cls-4{fill:none;}</style><clipPath id="clippath"><rect class="cls-4" width="69.05" height="69.05"/></clipPath></defs><g class="cls-3"><g><path class="cls-2" d="M13.74,16.5v18.5c3.5-1.17,12.1-1.4,18.5,7,1.5,3.17,3.9,10.5,1.5,14.5l7,4V30.5L13.74,16.5Z"/><path class="cls-1" d="M68.35,14.94L41.46,.17c-.4-.22-.89-.22-1.3,0l-10.14,5.57c-.21,.06-.41,.16-.58,.32L13.27,14.94c-.43,.24-.7,.69-.7,1.18v17.86c-2.73,.85-5.23,2.36-7.31,4.44C-.16,43.84-1.54,52.1,1.82,58.99c.33,.67,1.13,.95,1.8,.62,.67-.33,.95-1.13,.62-1.8-2.86-5.85-1.68-12.87,2.92-17.48,2.88-2.88,6.71-4.47,10.78-4.47s7.9,1.59,10.78,4.47c2.88,2.88,4.47,6.71,4.47,10.78s-1.59,7.9-4.47,10.78c-4.61,4.61-11.63,5.78-17.48,2.92-.67-.33-1.48-.05-1.8,.62-.33,.67-.05,1.48,.62,1.8,2.51,1.23,5.2,1.82,7.87,1.82,4.66,0,9.26-1.81,12.7-5.26,1.58-1.58,2.83-3.4,3.71-5.38l5.81,3.19c.2,.11,.43,.17,.65,.17s.45-.06,.65-.17l26.89-14.77c.43-.24,.7-.69,.7-1.18v-9.37c0-.74-.6-1.35-1.35-1.35s-1.35,.6-1.35,1.35v8.57l-24.19,13.28V31.68l7.98-4.38v6.95c0,.48,.25,.92,.66,1.16,.21,.12,.45,.19,.69,.19,.22,0,.45-.06,.65-.17l5.76-3.17c.43-.24,.7-.69,.7-1.18v-8.42l7.75-4.25v7.09c0,.75,.6,1.35,1.35,1.35s1.35-.6,1.35-1.35v-9.37c0-.49-.27-.95-.7-1.18ZM40.81,2.89l24.09,13.23-7.6,4.17L33.21,7.06l7.6-4.17Zm0,26.46l-24.09-13.23,7.88-4.33,24.09,13.23-7.88,4.33Zm10.68-5.86L27.4,10.25l3.01-1.65,24.09,13.23-3.01,1.65Zm-20.85,14.94c-3.39-3.39-7.9-5.26-12.69-5.26-.91,0-1.8,.07-2.68,.2v-14.96l24.2,13.29v26.46l-4.2-2.31c.41-1.52,.63-3.11,.63-4.73,0-4.79-1.87-9.3-5.26-12.69Zm25.27-8.14l-3.07,1.69v-6.15l3.07-1.68v6.15Z"/><path class="cls-1" d="M67.71,29.53c-.35,0-.7,.14-.95,.4-.25,.25-.4,.6-.4,.95s.14,.7,.4,.95c.25,.25,.6,.4,.95,.4s.7-.14,.95-.4c.25-.25,.4-.6,.4-.95s-.14-.7-.4-.95c-.25-.25-.6-.4-.95-.4Z"/><path class="cls-1" d="M13.41,52.45c.35,0,.69-.13,.95-.39,.53-.53,.53-1.38,0-1.91l-.93-.93h7.97c1.93,0,3.51,1.57,3.51,3.51s-1.57,3.51-3.51,3.51h-4.72c-.74,0-1.35,.6-1.35,1.35s.6,1.35,1.35,1.35h4.72c3.42,0,6.2-2.78,6.2-6.2s-2.78-6.2-6.2-6.2h-7.97l.93-.93c.53-.53,.53-1.38,0-1.91-.53-.53-1.38-.53-1.91,0l-3.24,3.24c-.53,.53-.53,1.38,0,1.91l3.24,3.24c.26,.26,.61,.4,.95,.4Z"/><path class="cls-1" d="M6.21,64.19c-.38,0-.76-.16-1.03-.48h0c-.48-.57-.41-1.42,.16-1.9,.57-.48,1.42-.41,1.9,.16,.48,.57,.41,1.42-.16,1.9-.25,.21-.56,.32-.87,.32Z"/></g></g></svg>