<?xml version="1.0" encoding="UTF-8"?><svg id="Layer_1" xmlns="http://www.w3.org/2000/svg" xmlns:xlink="http://www.w3.org/1999/xlink" viewBox="0 0 69.19 69.19"><defs><style>.cls-1{fill:#545554;}.cls-2{fill:#bfa280;}.cls-3{clip-path:url(#clippath);}.cls-4{fill:none;}</style><clipPath id="clippath"><rect class="cls-4" width="69.19" height="69.19"/></clipPath></defs><g class="cls-3"><g><path class="cls-2" d="M44.31,33l3.5-5.5,5-2.5c.67-.17,2.1-.4,2.5,0s6.17,8.17,9,12l2.5,4.5c-.5,1-1.6,3.1-2,3.5s-4.17,2.17-6,3c-1,.17-3.1,.5-3.5,.5s-5.17-6.33-7.5-9.5l-2.62-4.5-.88-1.5Z"/><path class="cls-2" d="M55.31,48.5c-.4,0-5.17-6.33-7.5-9.5l-2.62-4.5h-6.88c-.5,0-3,1-4,1.5l-3,1.5c-1,.5-2,1.5-2.5,2s-1.5,2-1.5,2.5,0,1.5,.5,2,1.5,1,2,1h3c.8,0,3-1,4-1.5,.33,.17,1.1,.6,1.5,1s3.83,2.83,5.5,4l4,4c.67,.33,2.1,.9,2.5,.5s1.83-1.5,2.5-2l1.5-1,1-1.5Z"/><path class="cls-2" d="M15.31,54c0,.8,1.33,2.33,2,3l3.5,3,2,1.5,2,2c.67,.33,2,1.1,2,1.5s2,.83,3,1c.5-.33,1.6-1.1,2-1.5q.5-.5,.5-1.5c0-1,0-2-.5-3s-.5-3-1-3.5-2.5-1.5-2.5-2-1.5-2.5-2-3-1.5-2.5-2-3-2-1.5-3-1-4,3-4.5,3.5c-.4,.4-1.17,2.17-1.5,3Z"/><path class="cls-2" d="M24.81,5c3,4.17,11.6,12.3,22,11.5l-2,6-3,2.5-9.5,3-7.5-2.5-4.5-8,.5-6.5,2.5-4.5,1.5-1.5Z"/><path class="cls-1" d="M33.48,17.97c-.53,0-1.18-.08-1.62-.57-.15-.17-.29-.34-.42-.47-1.06-1.11-2.87,.43-1.77,1.87l.27,.34c.17,.22,.49,.47,.93,.75,.44,.28,.92,.48,1.46,.6v1.91c0,.66,.54,1.2,1.19,1.2s1.22-.54,1.22-1.2v-1.92c.86-.2,1.6-.62,2.21-1.26,.61-.64,.91-1.48,.91-2.53,0-.72-.14-1.32-.42-1.8-.28-.48-.62-.81-1.02-1-.41-.19-.85-.36-1.34-.5-.49-.14-.93-.24-1.34-.3-.4-.06-.74-.18-1.02-.36-.28-.19-.42-.42-.42-.72,0-1.42,2.08-1.25,3-.47,1.35,1.14,2.87-.95,1.3-2.12l-.18-.16c-.12-.1-.34-.22-.65-.37-.31-.15-.66-.26-1.03-.34v-1.65c0-.66-.54-1.2-1.19-1.2s-1.19,.54-1.19,1.2v1.64c-.88,.17-1.61,.61-2.11,1.25-.51,.66-.77,1.38-.77,2.19s.19,1.48,.57,2.01c.38,.53,.84,.9,1.38,1.11,.54,.22,1.08,.39,1.62,.52,.54,.13,1,.27,1.38,.44,.38,.16,.57,.39,.57,.69,0,.83-.5,1.24-1.5,1.24Z"/><path class="cls-1" d="M67.76,39.03l-11.1-14.22c-.75-.96-1.88-1.51-3.11-1.51-.87,0-1.69,.28-2.38,.8l-7.27,5.54c-.83,.63-1.36,1.55-1.5,2.59-.02,.15-.03,.31-.03,.46-2.77-.21-5.63,0-8.41,1.81l-.12,.08-7.03-1.08c.01-.24,0-.49-.03-.74-.13-1.03-.66-1.95-1.49-2.58l-7.27-5.53c-1.7-1.3-4.17-.99-5.49,.71l-2.65,3.39c-.46,.59-.36,1.45,.24,1.91,.59,.46,1.45,.36,1.91-.24l2.65-3.39c.4-.51,1.17-.61,1.69-.22l7.27,5.54c.25,.19,.4,.46,.44,.77,.04,.31-.04,.61-.23,.86l-11.11,14.22c-.4,.51-1.17,.61-1.69,.22l-7.27-5.54c-.25-.19-.41-.46-.45-.77-.04-.31,.04-.61,.23-.85l1.89-2.42c.46-.59,.36-1.45-.24-1.91-.59-.46-1.45-.36-1.91,.24l-1.89,2.42c-.64,.82-.92,1.84-.79,2.88,.13,1.04,.66,1.96,1.5,2.59l7.27,5.54c.71,.54,1.54,.8,2.37,.8,.48,0,.96-.09,1.41-.26l.94,1.29c-.51,.93-.59,2.05-.18,3.13,.59,1.55,1.97,2.59,3.47,2.64,.05,.22,.11,.44,.2,.66,.6,1.5,1.98,2.52,3.47,2.58,0,.04,.01,.08,.02,.12,.28,1.37,1.33,2.54,2.68,2.98,.34,.11,.69,.17,1.03,.18,.13,.55,.41,1.09,.83,1.55,.66,.73,1.62,1.2,2.67,1.2,.76,0,1.58-.25,2.36-.82l1.54,1.44c.79,.73,1.78,1.1,2.76,1.1,.99,0,1.98-.38,2.73-1.13,.45-.45,.8-.98,1.02-1.54,.38,.12,.76,.17,1.12,.17,1.01,0,1.9-.43,2.54-1.09,.52-.54,.9-1.26,1.06-2.02,.06,0,.11,0,.17,0h.04c1.07,0,2.11-.42,2.83-1.15,.51-.51,.86-1.14,1.03-1.83,.26,.05,.52,.08,.78,.08,.33,0,.66-.04,.98-.12,1.31-.34,2.33-1.36,2.65-2.68,.29-1.21,0-2.49-.84-3.66,2.14-1.72,3.01-2.57,3.98-4.16,.67,.49,1.48,.76,2.34,.76s1.69-.28,2.38-.8l7.27-5.54c.83-.63,1.36-1.55,1.49-2.58,.13-1.04-.15-2.06-.79-2.88ZM18.14,55.19c-.21,.19-.41,.28-.6,.28-.39,0-.85-.39-1.04-.89-.17-.45-.09-.83,.24-1.13h0l4.59-4.09c.38-.34,.77-.52,1.12-.52,.51,0,.89,.39,1.03,.74,.15,.38,.06,.73-.26,1.02l-.8,.72h-.01l-.09,.09-4.18,3.77Zm3.71,3.26c-.21,.18-.4,.27-.6,.27-.41,0-.89-.39-1.09-.89-.22-.55,.04-.8,.12-.88,.05-.05,.12-.11,.18-.18h.02c.26-.25,2.57-2.33,3.67-3.33l.08-.07c.37-.33,.75-.5,1.1-.5,.54,0,.94,.41,1.09,.8,.14,.38,.06,.72-.26,.99l-.28,.25h0l-4.02,3.54Zm4.06,2.94s-.04,.03-.05,.05l-.32,.29c-.28,.26-.57,.33-.9,.22-.41-.14-.77-.53-.86-.94-.07-.36,.07-.69,.43-1.01l.45-.4s.02-.02,.03-.03l2.98-2.62c.71-.63,1.42-.69,1.89-.17,.07,.07,.63,.74-.06,1.36l-1.83,1.65s-.04,.03-.06,.05l-.02,.02-1.67,1.51-.02,.02Zm1.76,3.06c-.14-.16-.42-.57,.03-1.01l1.82-1.65c.14-.12,.27-.21,.4-.28h.02c.74-.4,1.13,.06,1.24,.21,.13,.19,.3,.57-.11,.94l-1.25,1.12h-.01l-.54,.5c-.89,.8-1.44,.33-1.59,.16Zm21.6-7.2c-.08,.35-.33,.59-.68,.68-.57,.15-1.3-.17-1.96-.85-.05-.06-.1-.11-.15-.16l-5.14-5.08c-.54-.53-1.4-.52-1.93,.01-.53,.54-.52,1.4,.01,1.93l5.14,5.08,.03,.03c.21,.21,.32,.49,.32,.8,0,.32-.12,.62-.34,.85-.22,.22-.55,.35-.91,.35h-.01c-.32,0-.6-.11-.81-.29-.09-.11-.18-.22-.28-.32l-3.76-3.77c-.53-.53-1.39-.53-1.93,0-.53,.53-.53,1.39,0,1.93l3.57,3.57c.04,.06,.09,.12,.15,.18l.15,.16c.2,.37,.07,1-.3,1.39-.58,.59-1.39,.07-1.97-.47l-1.61-1.52c-.55-.52-1.41-.49-1.93,.06-.52,.55-.49,1.41,.06,1.93l1.23,1.16h0s.07,.07,.07,.21c0,.32-.21,.76-.51,1.06-.45,.45-1.19,.43-1.7-.04l-1.35-1.26,.16-.15c1.34-1.2,1.55-3.06,.52-4.53-.33-.48-.75-.85-1.22-1.11,.66-1.31,.48-2.89-.59-4.09-.6-.67-1.46-1.14-2.41-1.24-.03-.34-.1-.69-.23-1.03-.46-1.23-1.49-2.13-2.7-2.44,.05-.54-.02-1.1-.23-1.65-.57-1.49-2.01-2.49-3.57-2.49-1.02,0-2.04,.42-2.93,1.21l-3.48,3.09-.76-1.05,10.37-13.29,4.74,.73-.72,.47c-3.84,2.49-4.12,5.39-3.11,7.28,.82,1.51,2.44,2.37,4.17,2.37,.71,0,1.44-.15,2.13-.45,.02,0,.04-.02,.05-.03l3.59-1.78,2.07,1.89h.01l9.59,8.54c.82,.73,1.22,1.54,1.07,2.16Zm-.11-4.96l-8.72-7.76-2.76-2.51c-.42-.38-1.02-.46-1.52-.21l-4.4,2.18c-1.19,.51-2.37,.02-2.78-.73-.56-1.04,.28-2.45,2.19-3.69l4.28-2.78c2.32-1.51,4.76-1.63,8.09-1.24l9.65,12.36c-1.02,1.83-1.56,2.41-4.03,4.38Zm16.69-10.72c-.04,.31-.2,.58-.44,.77l-7.27,5.54c-.26,.2-.54,.24-.72,.24-.38,0-.73-.17-.96-.46l-11.1-14.23c-.19-.24-.27-.55-.23-.85,.04-.31,.2-.58,.45-.77l7.26-5.54c.26-.2,.54-.24,.73-.24,.38,0,.73,.17,.96,.46l11.1,14.22c.19,.25,.27,.55,.23,.86Z"/><path class="cls-1" d="M26.6,27.68c2.14,1.15,4.56,1.76,6.99,1.76,8.11,0,14.71-6.61,14.71-14.73,0-5.67-3.31-10.89-8.43-13.31-1.97-.93-4.09-1.41-6.28-1.41-8.11,0-14.71,6.6-14.71,14.72,0,5.41,2.96,10.38,7.72,12.96ZM33.59,2.73c1.79,0,3.51,.39,5.12,1.15,4.17,1.97,6.87,6.23,6.87,10.85,0,6.62-5.38,12-11.98,12-1.98,0-3.95-.5-5.69-1.44-3.88-2.1-6.29-6.15-6.29-10.56,0-6.62,5.37-12,11.98-12Z"/><path class="cls-1" d="M6.83,34.85c.25,.2,.55,.3,.85,.3,.4,0,.8-.18,1.07-.51l.02-.02c.47-.59,.37-1.45-.22-1.92-.59-.47-1.45-.37-1.92,.22l-.02,.02c-.47,.59-.37,1.45,.22,1.92Z"/></g></g></svg>